<svg height="4000" version="1.1" width="4000" xmlns="http://www.w3.org/2000/svg" xmlns:xlink="http://www.w3.org/1999/xlink" style="overflow: hidden; position: relative;"><image x="54.1796875" y="-23.5" width="40" height="40" preserveAspectRatio="none" xlink:href="img/edit.png" opacity="0" style="-webkit-tap-highlight-color: rgba(0, 0, 0, 0); opacity: 0;" transform="matrix(1,0,0,1,631,453)"></image><image x="-94.1796875" y="-23.5" width="40" height="40" preserveAspectRatio="none" xlink:href="img/iconoBorrar.png" opacity="0" style="-webkit-tap-highlight-color: rgba(0, 0, 0, 0); opacity: 0;" transform="matrix(1,0,0,1,631,453)"></image><image x="52.1845703125" y="-23.5" width="40" height="40" preserveAspectRatio="none" xlink:href="img/edit.png" opacity="0" style="-webkit-tap-highlight-color: rgba(0, 0, 0, 0); opacity: 0;" transform="matrix(1,0,0,1,293,425)"></image><image x="-90.859375" y="-23.5" width="40" height="40" preserveAspectRatio="none" xlink:href="img/iconoBorrar.png" opacity="0" style="-webkit-tap-highlight-color: rgba(0, 0, 0, 0); opacity: 0;" transform="matrix(1,0,0,1,293,425)"></image><path fill="none" stroke="#596f53" d="M293.66259765625,425L631,453" stroke-width="3" style="-webkit-tap-highlight-color: rgba(0, 0, 0, 0);"></path><path fill="none" stroke="#596f53" d="M293.66259765625,425L289,116" stroke-width="3" style="-webkit-tap-highlight-color: rgba(0, 0, 0, 0);"></path><image x="53.3515625" y="-23.5" width="40" height="40" preserveAspectRatio="none" xlink:href="img/edit.png" opacity="0" style="-webkit-tap-highlight-color: rgba(0, 0, 0, 0); opacity: 0;" transform="matrix(1,0,0,1,454,219)"></image><image x="-93.3515625" y="-23.5" width="40" height="40" preserveAspectRatio="none" xlink:href="img/iconoBorrar.png" opacity="0" style="-webkit-tap-highlight-color: rgba(0, 0, 0, 0); opacity: 0;" transform="matrix(1,0,0,1,454,219)"></image><image x="58.3515625" y="-23.5" width="40" height="40" preserveAspectRatio="none" xlink:href="img/edit.png" opacity="0" style="-webkit-tap-highlight-color: rgba(0, 0, 0, 0); opacity: 0;" transform="matrix(1,0,0,1,632,323)"></image><image x="-98.3515625" y="-23.5" width="40" height="40" preserveAspectRatio="none" xlink:href="img/iconoBorrar.png" opacity="0" style="-webkit-tap-highlight-color: rgba(0, 0, 0, 0); opacity: 0;" transform="matrix(1,0,0,1,632,323)"></image><path fill="none" stroke="#596f53" d="M454,219L632,323" stroke-width="3" style="-webkit-tap-highlight-color: rgba(0, 0, 0, 0);"></path><path fill="none" stroke="#596f53" d="M454,219L289,116" stroke-width="3" style="-webkit-tap-highlight-color: rgba(0, 0, 0, 0);"></path><image x="52.849609375" y="-23.5" width="40" height="40" preserveAspectRatio="none" xlink:href="img/edit.png" opacity="0" style="-webkit-tap-highlight-color: rgba(0, 0, 0, 0); opacity: 0;" transform="matrix(1,0,0,1,648,113)"></image><image x="-92.5390625" y="-23.5" width="40" height="40" preserveAspectRatio="none" xlink:href="img/iconoBorrar.png" opacity="0" style="-webkit-tap-highlight-color: rgba(0, 0, 0, 0); opacity: 0;" transform="matrix(1,0,0,1,648,113)"></image><image x="37.5" y="-23.5" width="40" height="40" preserveAspectRatio="none" xlink:href="img/edit.png" opacity="0" style="-webkit-tap-highlight-color: rgba(0, 0, 0, 0); opacity: 0;" transform="matrix(1,0,0,1,289,116)"></image><image x="11.6640625" y="-23.5" width="40" height="40" preserveAspectRatio="none" xlink:href="img/edit.png" opacity="0" style="-webkit-tap-highlight-color: rgba(0, 0, 0, 0); opacity: 0;" transform="matrix(1,-0.0084,0.0084,1,432.5625,100.0649)"></image><path fill="none" stroke="#596f53" d="M648.1552734375,113L977.66259765625,116" stroke-width="3" style="-webkit-tap-highlight-color: rgba(0, 0, 0, 0);"></path><path fill="none" stroke="#596f53" d="M648.1552734375,113L289,116" stroke-width="3" style="-webkit-tap-highlight-color: rgba(0, 0, 0, 0);"></path><image x="-21.13886260986328" y="29.533004760742188" width="40" height="40" preserveAspectRatio="none" xlink:href="img/iconoBorrar.png" opacity="0" style="-webkit-tap-highlight-color: rgba(0, 0, 0, 0); opacity: 0;" transform="matrix(1,0,0,1,274,102)"></image><image x="38.8251953125" y="-23.5" width="40" height="40" preserveAspectRatio="none" xlink:href="img/edit.png" opacity="0" style="-webkit-tap-highlight-color: rgba(0, 0, 0, 0); opacity: 0;" transform="matrix(1,0,0,1,977,116)"></image><image x="-77.5" y="-23.5" width="40" height="40" preserveAspectRatio="none" xlink:href="img/iconoBorrar.png" opacity="0" style="-webkit-tap-highlight-color: rgba(0, 0, 0, 0); opacity: 0;" transform="matrix(1,0,0,1,977,116)"></image><image x="-77.5" y="-23.5" width="40" height="40" preserveAspectRatio="none" xlink:href="img/iconoBorrar.png" opacity="0" style="-webkit-tap-highlight-color: rgba(0, 0, 0, 0); opacity: 0;" transform="matrix(1,0,0,1,289,116)"></image><image x="87.20488739013672" y="29.533004760742188" width="40" height="40" preserveAspectRatio="none" xlink:href="img/edit.png" opacity="0" style="-webkit-tap-highlight-color: rgba(0, 0, 0, 0); opacity: 0;" transform="matrix(1,0,0,1,274,102)"></image><desc style="-webkit-tap-highlight-color: rgba(0, 0, 0, 0);">Created with Raphaël 2.1.2</desc><defs style="-webkit-tap-highlight-color: rgba(0, 0, 0, 0);"></defs><circle cx="0" cy="0" r="0" fill="none" stroke="#000" style="-webkit-tap-highlight-color: rgba(0, 0, 0, 0);"></circle><circle cx="-47.5" cy="-26.5" r="0" fill="none" stroke="#000" style="-webkit-tap-highlight-color: rgba(0, 0, 0, 0);"></circle><circle cx="53.03300858899106" cy="53.033008588991066" r="0" fill="none" stroke="#000" style="-webkit-tap-highlight-color: rgba(0, 0, 0, 0);"></circle><circle cx="55.85527801513672" cy="55.53300857543945" r="0" fill="none" stroke="#000" style="-webkit-tap-highlight-color: rgba(0, 0, 0, 0);"></circle><circle cx="53.35527801513672" cy="53.03300857543945" r="0" fill="none" stroke="#000" style="-webkit-tap-highlight-color: rgba(0, 0, 0, 0);"></circle><circle cx="0" cy="0" r="0" fill="none" stroke="#000" style="-webkit-tap-highlight-color: rgba(0, 0, 0, 0);"></circle><circle cx="-47.5" cy="-26.5" r="0" fill="none" stroke="#000" style="-webkit-tap-highlight-color: rgba(0, 0, 0, 0);"></circle><rect x="-47.5" y="-26.5" width="95" height="53" rx="0" ry="0" fill="#eded97" stroke="#949590" stroke-width="3" opacity="1" style="-webkit-tap-highlight-color: rgba(0, 0, 0, 0); opacity: 1; stroke-opacity: 1;" transform="matrix(1,0,0,1,289,116)" stroke-opacity="1"></rect><text x="0" y="0" text-anchor="center" font-family="&quot;Arial&quot;" font-size="30px" stroke="none" fill="#202024" style="-webkit-tap-highlight-color: rgba(0, 0, 0, 0); text-anchor: middle; font-family: Arial; font-size: 30px; font-weight: bold; opacity: 1;" font-weight="bold" opacity="1" transform="matrix(1,0,0,1,289,116)"><tspan dy="10.5" style="-webkit-tap-highlight-color: rgba(0, 0, 0, 0);">Libro</tspan></text><circle cx="0" cy="0" r="0" fill="none" stroke="#000" style="-webkit-tap-highlight-color: rgba(0, 0, 0, 0);"></circle><circle cx="-47.5" cy="-26.5" r="0" fill="none" stroke="#000" style="-webkit-tap-highlight-color: rgba(0, 0, 0, 0);"></circle><rect x="-47.5" y="-26.5" width="96.3251953125" height="53" rx="0" ry="0" fill="#eded97" stroke="#949590" stroke-width="3" opacity="1" style="-webkit-tap-highlight-color: rgba(0, 0, 0, 0); opacity: 1; stroke-opacity: 1;" transform="matrix(1,0,0,1,977,116)" stroke-opacity="1"></rect><text x="0" y="0" text-anchor="center" font-family="&quot;Arial&quot;" font-size="30px" stroke="none" fill="#202024" style="-webkit-tap-highlight-color: rgba(0, 0, 0, 0); text-anchor: middle; font-family: Arial; font-size: 30px; font-weight: bold; opacity: 1;" font-weight="bold" opacity="1" transform="matrix(1,0,0,1,977,116)"><tspan dy="10.5" style="-webkit-tap-highlight-color: rgba(0, 0, 0, 0);">autor</tspan></text><circle cx="0" cy="0" r="0" fill="none" stroke="#000" style="-webkit-tap-highlight-color: rgba(0, 0, 0, 0);"></circle><circle cx="-68.3515625" cy="-26.5" r="0" fill="none" stroke="#000" style="-webkit-tap-highlight-color: rgba(0, 0, 0, 0);"></circle><rect x="-68.3515625" y="-26.5" width="136.703125" height="53" rx="0" ry="0" fill="#eded97" stroke="#949590" stroke-width="3" opacity="1" style="-webkit-tap-highlight-color: rgba(0, 0, 0, 0); opacity: 1; stroke-opacity: 1;" transform="matrix(1,0,0,1,632,323)" stroke-opacity="1"></rect><text x="0" y="0" text-anchor="center" font-family="&quot;Arial&quot;" font-size="30px" stroke="none" fill="#202024" style="-webkit-tap-highlight-color: rgba(0, 0, 0, 0); text-anchor: middle; font-family: Arial; font-size: 30px; font-weight: bold; opacity: 1;" font-weight="bold" opacity="1" transform="matrix(1,0,0,1,632,323)"><tspan dy="10.5" style="-webkit-tap-highlight-color: rgba(0, 0, 0, 0);">editorial</tspan></text><circle cx="0" cy="0" r="0" fill="none" stroke="#000" style="-webkit-tap-highlight-color: rgba(0, 0, 0, 0);"></circle><circle cx="-64.1796875" cy="-26.5" r="0" fill="none" stroke="#000" style="-webkit-tap-highlight-color: rgba(0, 0, 0, 0);"></circle><rect x="-64.1796875" y="-26.5" width="128.359375" height="53" rx="0" ry="0" fill="#eded97" stroke="#949590" stroke-width="3" opacity="1" style="-webkit-tap-highlight-color: rgba(0, 0, 0, 0); opacity: 1; stroke-opacity: 1;" transform="matrix(1,0,0,1,631,453)" stroke-opacity="1"></rect><text x="0" y="0" text-anchor="center" font-family="&quot;Arial&quot;" font-size="30px" stroke="none" fill="#202024" style="-webkit-tap-highlight-color: rgba(0, 0, 0, 0); text-anchor: middle; font-family: Arial; font-size: 30px; font-weight: bold; opacity: 1;" font-weight="bold" opacity="1" transform="matrix(1,0,0,1,631,453)"><tspan dy="10.5" style="-webkit-tap-highlight-color: rgba(0, 0, 0, 0);">usuario</tspan></text><circle cx="0" cy="0" r="0" fill="none" stroke="#000" style="-webkit-tap-highlight-color: rgba(0, 0, 0, 0);"></circle><circle cx="0.1552734375" cy="0" r="0" fill="none" stroke="#000" style="-webkit-tap-highlight-color: rgba(0, 0, 0, 0);"></circle><circle cx="0" cy="0" r="0" fill="none" stroke="#000" style="-webkit-tap-highlight-color: rgba(0, 0, 0, 0);"></circle><image x="-71.6640625" y="-23.5" width="0" height="0" preserveAspectRatio="none" xlink:href="img/iconoBorrar.png" opacity="0" style="-webkit-tap-highlight-color: rgba(0, 0, 0, 0); opacity: 0;" transform="matrix(1,-0.0084,0.0084,1,432.726,99.2012)"></image><circle cx="-26.5625" cy="-17" r="0" fill="none" stroke="#000" style="-webkit-tap-highlight-color: rgba(0, 0, 0, 0);"></circle><rect x="-26.5625" y="-17" width="53.462890625" height="34" rx="0" ry="0" fill="none" stroke="none" stroke-width="0" style="-webkit-tap-highlight-color: rgba(0, 0, 0, 0);" transform="matrix(1,-0.0084,0.0084,1,432.5322,99.802)"></rect><text x="0" y="0" text-anchor="center" font-family="&quot;Arial&quot;" font-size="20px" stroke="none" fill="#000000" style="-webkit-tap-highlight-color: rgba(0, 0, 0, 0); text-anchor: middle; font-family: Arial; font-size: 20px; font-weight: normal;" font-weight="normal" transform="matrix(1,-0.0084,0.0084,1,432.5322,99.802)"><tspan dy="7" style="-webkit-tap-highlight-color: rgba(0, 0, 0, 0);">(1,n)</tspan></text><circle cx="0.1552734375" cy="0" r="0" fill="none" stroke="#000" style="-webkit-tap-highlight-color: rgba(0, 0, 0, 0);"></circle><circle cx="0" cy="0" r="0" fill="none" stroke="#000" style="-webkit-tap-highlight-color: rgba(0, 0, 0, 0);"></circle><image x="-71.6640625" y="-23.5" width="0" height="0" preserveAspectRatio="none" xlink:href="img/iconoBorrar.png" opacity="0" style="-webkit-tap-highlight-color: rgba(0, 0, 0, 0); opacity: 0;" transform="matrix(1,0.0091,-0.0091,1,845.7835,100.4521)"></image><image x="11.6640625" y="-23.5" width="40" height="40" preserveAspectRatio="none" xlink:href="img/edit.png" opacity="0" style="-webkit-tap-highlight-color: rgba(0, 0, 0, 0); opacity: 0;" transform="matrix(1,0.0091,-0.0091,1,845.9699,99.5122)"></image><circle cx="-26.5625" cy="-17" r="0" fill="none" stroke="#000" style="-webkit-tap-highlight-color: rgba(0, 0, 0, 0);"></circle><rect x="-26.5625" y="-17" width="53.462890625" height="34" rx="0" ry="0" fill="none" stroke="none" stroke-width="0" style="-webkit-tap-highlight-color: rgba(0, 0, 0, 0);" transform="matrix(1,0.0091,-0.0091,1,846.0005,99.7991)"></rect><text x="0" y="0" text-anchor="center" font-family="&quot;Arial&quot;" font-size="20px" stroke="none" fill="#000000" style="-webkit-tap-highlight-color: rgba(0, 0, 0, 0); text-anchor: middle; font-family: Arial; font-size: 20px; font-weight: normal;" font-weight="normal" transform="matrix(1,0.0091,-0.0091,1,846.0005,99.7991)"><tspan dy="7" style="-webkit-tap-highlight-color: rgba(0, 0, 0, 0);">(1,n)</tspan></text><circle cx="-52.5390625" cy="-16.5" r="0" fill="none" stroke="#000" style="-webkit-tap-highlight-color: rgba(0, 0, 0, 0);"></circle><path fill="#a4d698" stroke="#949590" d="M-87.66861979166666,0L0.1552734375,-44L87.97916666666666,0L0.1552734375,44Z" stroke-width="3" opacity="1" style="-webkit-tap-highlight-color: rgba(0, 0, 0, 0); opacity: 1; stroke-opacity: 1;" transform="matrix(1,0,0,1,648,113)" stroke-opacity="1"></path><text x="0" y="0" text-anchor="center" font-family="&quot;Arial&quot;" font-size="30px" stroke="none" fill="#202024" style="-webkit-tap-highlight-color: rgba(0, 0, 0, 0); text-anchor: middle; font-family: Arial; font-size: 30px; font-weight: bold; opacity: 1;" font-weight="bold" opacity="1" transform="matrix(1,0,0,1,648,113)"><tspan dy="10.5" style="-webkit-tap-highlight-color: rgba(0, 0, 0, 0);">escribe</tspan></text><circle cx="0" cy="0" r="0" fill="none" stroke="#000" style="-webkit-tap-highlight-color: rgba(0, 0, 0, 0);"></circle><circle cx="0" cy="0" r="0" fill="none" stroke="#000" style="-webkit-tap-highlight-color: rgba(0, 0, 0, 0);"></circle><circle cx="0" cy="0" r="0" fill="none" stroke="#000" style="-webkit-tap-highlight-color: rgba(0, 0, 0, 0);"></circle><image x="-70.84375" y="-23.5" width="0" height="0" preserveAspectRatio="none" xlink:href="img/iconoBorrar.png" opacity="0" style="-webkit-tap-highlight-color: rgba(0, 0, 0, 0); opacity: 0;" transform="matrix(0.8483,0.5295,-0.5295,0.8483,339.7489,178.4235)"></image><image x="10.84375" y="-23.5" width="40" height="40" preserveAspectRatio="none" xlink:href="img/edit.png" opacity="0" style="-webkit-tap-highlight-color: rgba(0, 0, 0, 0); opacity: 0;" transform="matrix(0.8483,0.5295,-0.5295,0.8483,365.767,127.6105)"></image><circle cx="-26.5625" cy="-17" r="0" fill="none" stroke="#000" style="-webkit-tap-highlight-color: rgba(0, 0, 0, 0);"></circle><rect x="-26.5625" y="-17" width="53.462890625" height="34" rx="0" ry="0" fill="none" stroke="none" stroke-width="0" style="-webkit-tap-highlight-color: rgba(0, 0, 0, 0);" transform="matrix(0.8483,0.5295,-0.5295,0.8483,362.9666,144.3849)"></rect><text x="0" y="0" text-anchor="center" font-family="&quot;Arial&quot;" font-size="20px" stroke="none" fill="#000000" style="-webkit-tap-highlight-color: rgba(0, 0, 0, 0); text-anchor: middle; font-family: Arial; font-size: 20px; font-weight: normal;" font-weight="normal" transform="matrix(0.8483,0.5295,-0.5295,0.8483,362.9666,144.3849)"><tspan dy="7" style="-webkit-tap-highlight-color: rgba(0, 0, 0, 0);">(1,1)</tspan></text><circle cx="0" cy="0" r="0" fill="none" stroke="#000" style="-webkit-tap-highlight-color: rgba(0, 0, 0, 0);"></circle><circle cx="0" cy="0" r="0" fill="none" stroke="#000" style="-webkit-tap-highlight-color: rgba(0, 0, 0, 0);"></circle><image x="-71.6640625" y="-23.5" width="0" height="0" preserveAspectRatio="none" xlink:href="img/iconoBorrar.png" opacity="0" style="-webkit-tap-highlight-color: rgba(0, 0, 0, 0); opacity: 0;" transform="matrix(0.8634,0.5045,-0.5045,0.8634,546.7269,301.3931)"></image><image x="11.6640625" y="-23.5" width="40" height="40" preserveAspectRatio="none" xlink:href="img/edit.png" opacity="0" style="-webkit-tap-highlight-color: rgba(0, 0, 0, 0); opacity: 0;" transform="matrix(0.8634,0.5045,-0.5045,0.8634,570.9282,251.9982)"></image><circle cx="-26.5625" cy="-17" r="0" fill="none" stroke="#000" style="-webkit-tap-highlight-color: rgba(0, 0, 0, 0);"></circle><rect x="-26.5625" y="-17" width="53.462890625" height="34" rx="0" ry="0" fill="none" stroke="none" stroke-width="0" style="-webkit-tap-highlight-color: rgba(0, 0, 0, 0);" transform="matrix(0.8634,0.5045,-0.5045,0.8634,568.3925,268.3647)"></rect><text x="0" y="0" text-anchor="center" font-family="&quot;Arial&quot;" font-size="20px" stroke="none" fill="#000000" style="-webkit-tap-highlight-color: rgba(0, 0, 0, 0); text-anchor: middle; font-family: Arial; font-size: 20px; font-weight: normal;" font-weight="normal" transform="matrix(0.8634,0.5045,-0.5045,0.8634,568.3925,268.3647)"><tspan dy="7" style="-webkit-tap-highlight-color: rgba(0, 0, 0, 0);">(1,n)</tspan></text><circle cx="-53.3515625" cy="-16.5" r="0" fill="none" stroke="#000" style="-webkit-tap-highlight-color: rgba(0, 0, 0, 0);"></circle><path fill="#a4d698" stroke="#949590" d="M-88.91927083333334,0L0,-44L88.91927083333334,0L0,44Z" stroke-width="3" opacity="1" style="-webkit-tap-highlight-color: rgba(0, 0, 0, 0); opacity: 1; stroke-opacity: 1;" transform="matrix(1,0,0,1,454,219)" stroke-opacity="1"></path><text x="0" y="0" text-anchor="center" font-family="&quot;Arial&quot;" font-size="30px" stroke="none" fill="#202024" style="-webkit-tap-highlight-color: rgba(0, 0, 0, 0); text-anchor: middle; font-family: Arial; font-size: 30px; font-weight: bold; opacity: 1;" font-weight="bold" opacity="1" transform="matrix(1,0,0,1,454,219)"><tspan dy="10.5" style="-webkit-tap-highlight-color: rgba(0, 0, 0, 0);">Publica</tspan></text><circle cx="0" cy="0" r="0" fill="none" stroke="#000" style="-webkit-tap-highlight-color: rgba(0, 0, 0, 0);"></circle><circle cx="0.66259765625" cy="0" r="0" fill="none" stroke="#000" style="-webkit-tap-highlight-color: rgba(0, 0, 0, 0);"></circle><circle cx="0" cy="0" r="0" fill="none" stroke="#000" style="-webkit-tap-highlight-color: rgba(0, 0, 0, 0);"></circle><image x="-71.6640625" y="-23.5" width="0" height="0" preserveAspectRatio="none" xlink:href="img/iconoBorrar.png" opacity="0" style="-webkit-tap-highlight-color: rgba(0, 0, 0, 0); opacity: 0;" transform="matrix(0.0151,0.9999,-0.9999,0.0151,211.7831,287.8802)"></image><image x="11.6640625" y="-23.5" width="40" height="40" preserveAspectRatio="none" xlink:href="img/edit.png" opacity="0" style="-webkit-tap-highlight-color: rgba(0, 0, 0, 0); opacity: 0;" transform="matrix(0.0151,0.9999,-0.9999,0.0151,333.55,204.2621)"></image><circle cx="-26.5625" cy="-17" r="0" fill="none" stroke="#000" style="-webkit-tap-highlight-color: rgba(0, 0, 0, 0);"></circle><rect x="-26.5625" y="-17" width="53.462890625" height="34" rx="0" ry="0" fill="none" stroke="none" stroke-width="0" style="-webkit-tap-highlight-color: rgba(0, 0, 0, 0);" transform="matrix(0.0151,0.9999,-0.9999,0.0151,306.0297,239.2008)"></rect><text x="0" y="0" text-anchor="center" font-family="&quot;Arial&quot;" font-size="20px" stroke="none" fill="#000000" style="-webkit-tap-highlight-color: rgba(0, 0, 0, 0); text-anchor: middle; font-family: Arial; font-size: 20px; font-weight: normal;" font-weight="normal" transform="matrix(0.0151,0.9999,-0.9999,0.0151,306.0297,239.2008)"><tspan dy="7" style="-webkit-tap-highlight-color: rgba(0, 0, 0, 0);">(0,n)</tspan></text><circle cx="0.66259765625" cy="0" r="0" fill="none" stroke="#000" style="-webkit-tap-highlight-color: rgba(0, 0, 0, 0);"></circle><circle cx="0" cy="0" r="0" fill="none" stroke="#000" style="-webkit-tap-highlight-color: rgba(0, 0, 0, 0);"></circle><image x="-71.6640625" y="-23.5" width="0" height="0" preserveAspectRatio="none" xlink:href="img/iconoBorrar.png" opacity="0" style="-webkit-tap-highlight-color: rgba(0, 0, 0, 0); opacity: 0;" transform="matrix(0.9966,0.0827,-0.0827,0.9966,495.1207,432.6992)"></image><image x="11.6640625" y="-23.5" width="40" height="40" preserveAspectRatio="none" xlink:href="img/edit.png" opacity="0" style="-webkit-tap-highlight-color: rgba(0, 0, 0, 0); opacity: 0;" transform="matrix(0.9966,0.0827,-0.0827,0.9966,497.1291,424.2206)"></image><circle cx="-26.5625" cy="-17" r="0" fill="none" stroke="#000" style="-webkit-tap-highlight-color: rgba(0, 0, 0, 0);"></circle><rect x="-26.5625" y="-17" width="53.462890625" height="34" rx="0" ry="0" fill="none" stroke="none" stroke-width="0" style="-webkit-tap-highlight-color: rgba(0, 0, 0, 0);" transform="matrix(0.9966,0.0827,-0.0827,0.9966,497.3107,426.8378)"></rect><text x="0" y="0" text-anchor="center" font-family="&quot;Arial&quot;" font-size="20px" stroke="none" fill="#000000" style="-webkit-tap-highlight-color: rgba(0, 0, 0, 0); text-anchor: middle; font-family: Arial; font-size: 20px; font-weight: normal;" font-weight="normal" transform="matrix(0.9966,0.0827,-0.0827,0.9966,497.3107,426.8378)"><tspan dy="7" style="-webkit-tap-highlight-color: rgba(0, 0, 0, 0);">(0,n)</tspan></text><circle cx="-50.859375" cy="-16.5" r="0" fill="none" stroke="#000" style="-webkit-tap-highlight-color: rgba(0, 0, 0, 0);"></circle><path fill="#a4d698" stroke="#949590" d="M-85.20735677083334,0L0.66259765625,-44L86.53255208333334,0L0.66259765625,44Z" stroke-width="3" opacity="1" style="-webkit-tap-highlight-color: rgba(0, 0, 0, 0); opacity: 1; stroke-opacity: 1;" transform="matrix(1,0,0,1,293,425)" stroke-opacity="1"></path><text x="0" y="0" text-anchor="center" font-family="&quot;Arial&quot;" font-size="30px" stroke="none" fill="#202024" style="-webkit-tap-highlight-color: rgba(0, 0, 0, 0); text-anchor: middle; font-family: Arial; font-size: 30px; font-weight: bold; opacity: 1;" font-weight="bold" opacity="1" transform="matrix(1,0,0,1,293,425)"><tspan dy="10.5" style="-webkit-tap-highlight-color: rgba(0, 0, 0, 0);">prestar</tspan></text></svg>